<svg width="18" height="19" viewBox="0 0 18 19" fill="none" xmlns="http://www.w3.org/2000/svg">
<path id="Vector" d="M18 17.997C18 18.5493 17.5523 18.997 17 18.997H1C0.44772 18.997 0 18.5493 0 17.997V7.31086C0 7.00468 0.14027 6.71537 0.38065 6.52574L8.3807 0.214882C8.7438 -0.0716275 9.2562 -0.0716275 9.6193 0.214882L17.6193 6.52574C17.8597 6.71537 18 7.00468 18 7.31086V17.997ZM4 9.99697C4 12.7584 6.23858 14.997 9 14.997C11.7614 14.997 14 12.7584 14 9.99697H12C12 11.6539 10.6569 12.997 9 12.997C7.3431 12.997 6 11.6539 6 9.99697H4Z" fill="#9C9C9C"/>
</svg>
