<svg width="16" height="18" viewBox="0 0 16 18" fill="none" xmlns="http://www.w3.org/2000/svg">
<path id="Vector" d="M1.08333 0H14.4167C14.8769 0 15.25 0.387889 15.25 0.866365V17.5667C15.25 17.806 15.0634 18 14.8333 18C14.7748 18 14.717 17.987 14.6636 17.9623L7.75 14.7553L0.836442 17.9623C0.626292 18.0598 0.379925 17.9617 0.286158 17.7433C0.262317 17.6876 0.25 17.6275 0.25 17.5667V0.866365C0.25 0.387889 0.6231 0 1.08333 0ZM7.75 9.9632L10.1991 11.3018L9.73133 8.46656L11.7128 6.45869L8.97458 6.04503L7.75 3.46546L6.52542 6.04503L3.78727 6.45869L5.76863 8.46656L5.30089 11.3018L7.75 9.9632Z" fill="#9C9C9C"/>
</svg>
