<svg width="22" height="21" viewBox="0 0 22 21" fill="none" xmlns="http://www.w3.org/2000/svg">
<path id="Vector" d="M4.64038 7H18.5788L19.0788 5H6.64038V3H20.3596C20.9119 3 21.3596 3.44772 21.3596 4C21.3596 4.08176 21.3496 4.16322 21.3297 4.24254L18.8297 14.2425C18.7185 14.6877 18.3185 15 17.8596 15H3.64038C3.0881 15 2.64038 14.5523 2.64038 14V2H0.640381V0H3.64038C4.19267 0 4.64038 0.44772 4.64038 1V7ZM4.64038 21C3.53581 21 2.64038 20.1046 2.64038 19C2.64038 17.8954 3.53581 17 4.64038 17C5.74495 17 6.64038 17.8954 6.64038 19C6.64038 20.1046 5.74495 21 4.64038 21ZM16.6404 21C15.5358 21 14.6404 20.1046 14.6404 19C14.6404 17.8954 15.5358 17 16.6404 17C17.745 17 18.6404 17.8954 18.6404 19C18.6404 20.1046 17.745 21 16.6404 21Z" fill="#9C9C9C"/>
</svg>
